# xmcd CD database file
#
# Track frame offsets:
#	150
#	28954
#	71881
#	105976
#	144238
#	172605
#	202596
#	230921
#	260069
#	299567
#
# Disc length: 4373 seconds
#
# Revision: 1
# Processed by: cddbd v1.5.2PL0 Copyright (c) Steve Scherf et al.
# Submitted via: CDex 1.77
#
DISCID=9011130a
DTITLE=Paul Sills - Awake And Dreaming
DYEAR=2015
DGENRE=New Age
TTITLE0=Rainbows End
TTITLE1=Balloons And Clouds
TTITLE2=Childhood
TTITLE3=Sepia Fields
TTITLE4=A Never Ending Day
TTITLE5=Lucid Dream
TTITLE6=Day Dreaming
TTITLE7=Hazy Days
TTITLE8=Illusion
TTITLE9=Hallucinations
EXTD=YEAR: 2015
EXTT0=
EXTT1=
EXTT2=
EXTT3=
EXTT4=
EXTT5=
EXTT6=
EXTT7=
EXTT8=
EXTT9=
PLAYORDER=
